#tb 0: 1001/24000
#media_type 0: video
#codec_id 0: rawvideo
#dimensions 0: 320x180
#sar 0: 1/1
0,          0,          0,        1,   230400, 0xf7976830
0,          1,          1,        1,   230400, 0xfb756340
0,          2,          2,        1,   230400, 0x2199687e
0,          3,          3,        1,   230400, 0xd8186657
0,          4,          4,        1,   230400, 0xd33a6319
0,          5,          5,        1,   230400, 0x704c603b
0,          6,          6,        1,   230400, 0x9e6c6146
0,          7,          7,        1,   230400, 0x63ee15f1
0,          8,          8,        1,   230400, 0x8b201716
0,          9,          9,        1,   230400, 0xac8e1602
0,         10,         10,        1,   230400, 0xd97e53b6
0,         11,         11,        1,   230400, 0x8ecc5304
0,         12,         12,        1,   230400, 0x0ea25368
0,         13,         13,        1,   230400, 0x78c7555e
0,         14,         14,        1,   230400, 0x96e3562d
0,         15,         15,        1,   230400, 0xecc75867
0,         16,         16,        1,   230400, 0x56e26feb
0,         17,         17,        1,   230400, 0xf65d6fac
0,         18,         18,        1,   230400, 0x5597709e
0,         19,         19,        1,   230400, 0xeb077c34
0,         20,         20,        1,   230400, 0xce997afa
0,         21,         21,        1,   230400, 0xbec37abd
0,         22,         22,        1,   230400, 0xb01688c4
0,         23,         23,        1,   230400, 0x0c828927
0,         24,         24,        1,   230400, 0xa6308757
0,         25,         25,        1,   230400, 0x90e68727
0,         26,         26,        1,   230400, 0xe3258ae5
0,         27,         27,        1,   230400, 0x988e8993
0,         28,         28,        1,   230400, 0xc13688b0
0,         29,         29,        1,   230400, 0xcc528fa1
0,         30,         30,        1,   230400, 0x28c691a9
0,         31,         31,        1,   230400, 0x7de96ae9
0,         32,         32,        1,   230400, 0x47946fa5
0,         33,         33,        1,   230400, 0x1c3efa7c
0,         34,         34,        1,   230400, 0x7fc6fc80
0,         35,         35,        1,   230400, 0x0509c853
0,         36,         36,        1,   230400, 0x691bca43
0,         37,         37,        1,   230400, 0xadb5eafd
0,         38,         38,        1,   230400, 0x559feafa
0,         39,         39,        1,   230400, 0xa17906da
0,         40,         40,        1,   230400, 0x6091f838
0,         41,         41,        1,   230400, 0x9640f6fa
0,         42,         42,        1,   230400, 0xa73af817
0,         43,         43,        1,   230400, 0x255fde90
0,         44,         44,        1,   230400, 0x7284deac
0,         45,         45,        1,   230400, 0xf603df3f
0,         46,         46,        1,   230400, 0x435cde3a
0,         47,         47,        1,   230400, 0x825add61
0,         48,         48,        1,   230400, 0x13b6bc0e
0,         49,         49,        1,   230400, 0x72e7c13d
0,         50,         50,        1,   230400, 0x2bcdc061
0,         51,         51,        1,   230400, 0xb2e7c189
0,         52,         52,        1,   230400, 0xb4eabe46
0,         53,         53,        1,   230400, 0x0108c777
0,         54,         54,        1,   230400, 0xae5cc3b3
0,         55,         55,        1,   230400, 0xdd8ec4da
0,         56,         56,        1,   230400, 0x0ec5c1d0
0,         57,         57,        1,   230400, 0x3ad7cab8
0,         58,         58,        1,   230400, 0xa9b0c95b
0,         59,         59,        1,   230400, 0xe98ec9a0
0,         60,         60,        1,   230400, 0x07d9c42e
0,         61,         61,        1,   230400, 0x23b8c94e
0,         62,         62,        1,   230400, 0xd3a9d25d
0,         63,         63,        1,   230400, 0x3154cf78
0,         64,         64,        1,   230400, 0x163ad234
0,         65,         65,        1,   230400, 0x3ce2d276
0,         66,         66,        1,   230400, 0x6f0bd556
0,         67,         67,        1,   230400, 0xd982cb24
0,         68,         68,        1,   230400, 0xd04ac7ab
0,         69,         69,        1,   230400, 0x5302d29a
0,         70,         70,        1,   230400, 0xd989d0dc
